<svg width="201" height="175" viewBox="0 0 201 175" fill="none" xmlns="http://www.w3.org/2000/svg">
<g clip-path="url(#clip0_1_236)">
<path d="M9.69876 59.6346L0.00703615 54.2043C-0.123695 48.3943 1.1732 42.6404 3.78512 37.4422C6.01959 47.5312 17.7788 52.3313 23.2044 61.1402C24.8754 63.9006 25.9006 66.9996 26.204 70.2077C26.5074 73.4158 26.0813 76.6506 24.9571 79.6726L25.5945 87.4949C20.5855 86.0024 15.9613 83.4474 12.0404 80.0059C8.11961 76.5643 4.99539 72.3181 2.88303 67.5598C1.72458 64.8787 0.910143 62.0631 0.458932 59.1796C4.97763 59.6579 9.69876 59.6346 9.69876 59.6346Z" fill="#F2F2F2"/>
<path d="M123.659 67.7933H22.337C20.754 67.795 19.2363 68.4214 18.117 69.535C16.9976 70.6485 16.368 72.1583 16.3662 73.733V136.488C16.368 138.063 16.9976 139.572 18.117 140.686C19.2364 141.799 20.754 142.426 22.337 142.428H123.659C125.242 142.426 126.76 141.8 127.879 140.686C128.999 139.572 129.628 138.063 129.63 136.488V73.733C129.628 72.1582 128.999 70.6485 127.879 69.5349C126.76 68.4214 125.242 67.795 123.659 67.7933Z" fill="#FC5D3D"/>
<path d="M123.659 67.7933H22.337C20.754 67.795 19.2363 68.4214 18.117 69.535C16.9976 70.6485 16.368 72.1583 16.3662 73.733V136.488C16.368 138.063 16.9976 139.572 18.117 140.686C19.2364 141.799 20.754 142.426 22.337 142.428H123.659C125.242 142.426 126.76 141.8 127.879 140.686C128.999 139.572 129.628 138.063 129.63 136.488V73.733C129.628 72.1582 128.999 70.6485 127.879 69.5349C126.76 68.4214 125.242 67.795 123.659 67.7933ZM125.619 112.871C125.595 119.26 123.054 125.385 118.543 129.932C114.031 134.479 107.908 137.086 101.487 137.193C91.2058 137.326 107.175 137.378 94.7756 137.378C66.4217 137.378 36.8564 137.109 25.8253 136.934C24.3739 136.904 22.9918 136.311 21.9739 135.281C20.9561 134.252 20.3832 132.867 20.3776 131.423V73.7377C20.3781 73.2206 20.5846 72.7247 20.9517 72.3586C21.3188 71.9924 21.8168 71.7859 22.3366 71.784H123.655C124.175 71.7846 124.673 71.9899 125.041 72.3551C125.409 72.7202 125.617 73.2154 125.619 73.7325V112.871Z" fill="#130160"/>
<path d="M111.187 31.6571H33.9897C33.3067 31.658 32.6406 31.8687 32.0824 32.2603C31.5242 32.6518 31.1011 33.2053 30.8708 33.845L18.9483 67.1205C18.7703 67.6171 18.7149 68.149 18.7865 68.6715C18.8581 69.1939 19.0548 69.6916 19.3599 70.1227C19.6651 70.5539 20.0698 70.9058 20.5401 71.149C21.0104 71.3922 21.5325 71.5195 22.0625 71.5203L125.596 71.7031H125.601C126.149 71.703 126.688 71.5678 127.171 71.3093C127.653 71.0509 128.063 70.6774 128.365 70.2224C128.667 69.7673 128.85 69.245 128.899 68.702C128.948 68.1591 128.86 67.6127 128.644 67.1117L128.464 67.1886L128.644 67.1117L114.23 33.6534C113.975 33.0606 113.551 32.5553 113.01 32.2004C112.469 31.8455 111.835 31.6566 111.187 31.6571Z" fill="#130160"/>
<path d="M128.912 67.8343C128.912 68.2805 128.821 68.722 128.644 69.1321L114.231 94.8873C113.974 95.4789 113.549 95.9828 113.008 96.3371C112.468 96.6914 111.834 96.8807 111.187 96.8815H33.9908C33.3076 96.8808 32.6412 96.6705 32.0825 96.2791C31.5239 95.8878 31.1002 95.3345 30.8693 94.6947L18.949 69.1232C18.8029 68.7158 18.7389 68.2838 18.7608 67.8518C18.7826 67.4198 18.8898 66.9963 19.0762 66.6055C19.2627 66.2148 19.5247 65.8644 19.8474 65.5744C20.17 65.2845 20.5469 65.0606 20.9566 64.9156C21.311 64.7883 21.6849 64.7232 22.0616 64.723L34.7087 64.6993L39.8706 64.6905L107.794 64.5719L112.959 64.563L125.597 64.5393H125.6C126.478 64.5395 127.321 64.8867 127.942 65.5046C128.563 66.1225 128.912 66.9605 128.912 67.8343Z" fill="#130160"/>
<path d="M29.9329 114.867C31.4637 114.867 52.4849 116.145 52.4849 117.668C52.4849 119.19 31.4637 120.381 29.9329 120.381C29.1978 120.381 28.4928 120.091 27.973 119.574C27.4531 119.057 27.1611 118.355 27.1611 117.624C27.1611 116.893 27.4531 116.191 27.973 115.674C28.4928 115.157 29.1978 114.867 29.9329 114.867Z" fill="#130160"/>
<path d="M106.379 11.414H41.2884C39.544 11.416 37.8716 12.1063 36.6381 13.3333C35.4046 14.5604 34.7108 16.2241 34.7087 17.9595V96.8815H111.187C111.815 96.8835 112.43 96.7055 112.959 96.3689V17.9595C112.957 16.2241 112.263 14.5604 111.03 13.3333C109.796 12.1063 108.124 11.416 106.379 11.414Z" fill="#E6E6E6"/>
<path d="M81.535 16.7209H45.8635C44.2751 16.7224 42.7521 17.3506 41.6286 18.4677C40.5052 19.5848 39.8729 21.0995 39.8706 22.6797V96.8815H107.794V42.8435C107.786 35.9178 105.017 29.2781 100.094 24.3809C95.1713 19.4836 88.4969 16.7289 81.535 16.7209Z" fill="white"/>
<path d="M96.2224 90.2916H51.4424C51.0553 90.2916 50.6841 90.4446 50.4104 90.7169C50.1367 90.9891 49.9829 91.3584 49.9829 91.7435C49.9829 92.1286 50.1367 92.4979 50.4104 92.7702C50.6841 93.0425 51.0553 93.1954 51.4424 93.1954H96.2224C96.6095 93.1954 96.9807 93.0425 97.2544 92.7702C97.5281 92.4979 97.6819 92.1286 97.6819 91.7435C97.6819 91.3584 97.5281 90.9891 97.2544 90.7169C96.9807 90.4446 96.6095 90.2916 96.2224 90.2916Z" fill="#E4E4E4"/>
<path d="M96.2224 84.5491H51.4424C51.055 84.5491 50.6834 84.7022 50.4094 84.9748C50.1354 85.2474 49.9814 85.617 49.9814 86.0025C49.9814 86.388 50.1354 86.7576 50.4094 87.0302C50.6834 87.3028 51.055 87.4559 51.4424 87.4559H96.2224C96.6099 87.4559 96.9815 87.3028 97.2555 87.0302C97.5295 86.7576 97.6834 86.388 97.6834 86.0025C97.6834 85.617 97.5295 85.2474 97.2555 84.9748C96.9815 84.7022 96.6099 84.5491 96.2224 84.5491Z" fill="#E4E4E4"/>
<path d="M70.8538 78.8096H51.4424C51.0553 78.8096 50.6841 78.9626 50.4104 79.2349C50.1367 79.5071 49.9829 79.8764 49.9829 80.2615C49.9829 80.6466 50.1367 81.0159 50.4104 81.2882C50.6841 81.5605 51.0553 81.7134 51.4424 81.7134H70.8538C71.2409 81.7134 71.6121 81.5605 71.8858 81.2882C72.1595 81.0159 72.3133 80.6466 72.3133 80.2615C72.3133 79.8764 72.1595 79.5071 71.8858 79.2349C71.6121 78.9626 71.2409 78.8096 70.8538 78.8096Z" fill="#E4E4E4"/>
<path d="M96.2224 66.7853H51.4424C51.055 66.7853 50.6834 66.9385 50.4094 67.211C50.1354 67.4836 49.9814 67.8533 49.9814 68.2387C49.9814 68.6242 50.1354 68.9939 50.4094 69.2664C50.6834 69.539 51.055 69.6921 51.4424 69.6921H96.2224C96.6099 69.6921 96.9815 69.539 97.2555 69.2664C97.5295 68.9939 97.6834 68.6242 97.6834 68.2387C97.6834 67.8533 97.5295 67.4836 97.2555 67.211C96.9815 66.9385 96.6099 66.7853 96.2224 66.7853Z" fill="#E4E4E4"/>
<path d="M96.2224 61.0458H51.4424C51.0553 61.0458 50.6841 61.1988 50.4104 61.4711C50.1367 61.7434 49.9829 62.1127 49.9829 62.4978C49.9829 62.8828 50.1367 63.2521 50.4104 63.5244C50.6841 63.7967 51.0553 63.9497 51.4424 63.9497H96.2224C96.6095 63.9497 96.9807 63.7967 97.2544 63.5244C97.5281 63.2521 97.6819 62.8828 97.6819 62.4978C97.6819 62.1127 97.5281 61.7434 97.2544 61.4711C96.9807 61.1988 96.6095 61.0458 96.2224 61.0458Z" fill="#E4E4E4"/>
<path d="M70.8539 55.3034H51.4424C51.055 55.3034 50.6834 55.4565 50.4094 55.7291C50.1354 56.0016 49.9814 56.3713 49.9814 56.7568C49.9814 57.1422 50.1354 57.5119 50.4094 57.7845C50.6834 58.057 51.055 58.2102 51.4424 58.2102H70.8539C71.2413 58.2102 71.613 58.057 71.8869 57.7845C72.1609 57.5119 72.3149 57.1422 72.3149 56.7568C72.3149 56.3713 72.1609 56.0016 71.8869 55.7291C71.613 55.4565 71.2413 55.3034 70.8539 55.3034Z" fill="#E4E4E4"/>
<path d="M96.2224 43.2791H51.4424C51.055 43.2791 50.6834 43.4322 50.4094 43.7048C50.1354 43.9774 49.9814 44.347 49.9814 44.7325C49.9814 45.118 50.1354 45.4877 50.4094 45.7602C50.6834 46.0328 51.055 46.1859 51.4424 46.1859H96.2224C96.6099 46.1859 96.9815 46.0328 97.2555 45.7602C97.5295 45.4877 97.6834 45.118 97.6834 44.7325C97.6834 44.347 97.5295 43.9774 97.2555 43.7048C96.9815 43.4322 96.6099 43.2791 96.2224 43.2791Z" fill="#130160"/>
<path d="M96.2224 37.5396H51.4424C51.055 37.5396 50.6834 37.6927 50.4094 37.9653C50.1354 38.2379 49.9814 38.6075 49.9814 38.993C49.9814 39.3785 50.1354 39.7482 50.4094 40.0207C50.6834 40.2933 51.055 40.4464 51.4424 40.4464H96.2224C96.6099 40.4464 96.9815 40.2933 97.2555 40.0207C97.5295 39.7482 97.6834 39.3785 97.6834 38.993C97.6834 38.6075 97.5295 38.2379 97.2555 37.9653C96.9815 37.6927 96.6099 37.5396 96.2224 37.5396Z" fill="#130160"/>
<path d="M70.8539 31.7971H51.4424C51.055 31.7971 50.6834 31.9502 50.4094 32.2228C50.1354 32.4954 49.9814 32.8651 49.9814 33.2505C49.9814 33.636 50.1354 34.0057 50.4094 34.2782C50.6834 34.5508 51.055 34.7039 51.4424 34.7039H70.8539C71.2413 34.7039 71.613 34.5508 71.8869 34.2782C72.1609 34.0057 72.3149 33.636 72.3149 33.2505C72.3149 32.8651 72.1609 32.4954 71.8869 32.2228C71.613 31.9502 71.2413 31.7971 70.8539 31.7971Z" fill="#130160"/>
<path d="M110.519 22.616C116.797 22.616 121.886 17.5533 121.886 11.308C121.886 5.06277 116.797 0 110.519 0C104.241 0 99.1516 5.06277 99.1516 11.308C99.1516 17.5533 104.241 22.616 110.519 22.616Z" fill="#FC5D3D"/>
<path d="M108.968 17.1933C108.772 17.1933 108.578 17.1478 108.402 17.0605C108.227 16.9731 108.074 16.8463 107.956 16.69L104.855 12.5766C104.755 12.4445 104.682 12.2941 104.641 12.1339C104.599 11.9736 104.59 11.8068 104.613 11.643C104.636 11.4792 104.692 11.3215 104.776 11.1791C104.861 11.0366 104.973 10.9122 105.106 10.8129C105.239 10.7136 105.391 10.6415 105.552 10.6005C105.713 10.5596 105.881 10.5506 106.045 10.5743C106.21 10.5979 106.368 10.6536 106.511 10.7382C106.654 10.8228 106.779 10.9347 106.878 11.0673L108.907 13.7582L114.118 5.98264C114.304 5.70506 114.593 5.51236 114.922 5.44693C115.251 5.38151 115.593 5.44871 115.872 5.63377C116.151 5.81882 116.344 6.10657 116.41 6.4337C116.476 6.76083 116.408 7.10055 116.222 7.37813L110.02 16.6331C109.908 16.8005 109.757 16.9387 109.58 17.0361C109.403 17.1335 109.205 17.1873 109.003 17.1929C108.991 17.1931 108.98 17.1933 108.968 17.1933Z" fill="white"/>
</g>
<defs>
<clipPath id="clip0_1_236">
<rect width="201" height="175" fill="white"/>
</clipPath>
</defs>
</svg>
