<svg width="150" height="27" viewBox="0 0 150 27" fill="none" xmlns="http://www.w3.org/2000/svg">
<path d="M140.651 0.205078H8.91638C3.992 0.205078 0 4.19708 0 9.12145V18.0837C0 23.0081 3.992 27.0001 8.91638 27.0001H140.651C145.575 27.0001 149.567 23.0081 149.567 18.0837V9.12145C149.567 4.19708 145.575 0.205078 140.651 0.205078Z" fill="#FC5D3D"/>
<path d="M41.6611 9.53543L36.6106 11.1862V5.87207H32.8237V11.1862L27.7745 9.53543L26.5938 13.1568L31.643 14.7935L28.5184 19.0976L31.6022 21.3318L34.7178 17.0405L37.8322 21.3318L40.916 19.0976L37.7927 14.7935L42.8406 13.1568L41.6611 9.53543Z" fill="white"/>
<path d="M68.3708 9.53537L63.3216 11.1862V5.87201H59.5347V11.1862L54.4842 9.53537L53.3047 13.1567L58.3526 14.7935L55.2293 19.0976L58.3131 21.3317L61.4275 17.0404L64.5431 21.3317L67.6257 19.0976L64.5024 14.7935L69.5516 13.1567L68.3708 9.53537Z" fill="white"/>
<path d="M95.0817 9.53537L90.0312 11.1862V5.87201H86.2443V11.1862L81.1951 9.53537L80.0143 13.1567L85.0635 14.7935L81.9402 19.0976L85.0227 21.3317L88.1384 17.0404L91.2527 21.3317L94.3365 19.0976L91.2133 14.7935L96.2612 13.1567L95.0817 9.53537Z" fill="white"/>
<path d="M122.972 13.1567L121.791 9.53537L116.742 11.1862V5.87201H112.955V11.1862L107.905 9.53537L106.725 13.1567L111.773 14.7935L108.65 19.0976L111.734 21.3317L114.848 17.0404L117.964 21.3317L121.046 19.0976L117.923 14.7935L122.972 13.1567Z" fill="white"/>
</svg>
