<svg width="110" height="100" viewBox="0 0 110 100" fill="none" xmlns="http://www.w3.org/2000/svg">
<path d="M60.867 66.6436V94.4295C60.867 96.2192 61.3956 97.8878 62.3064 99.2864H9.74687C4.36266 99.2864 0 94.9212 0 89.5395V84.0088C0 70.4241 9.00299 58.9398 21.3675 55.1988C23.4577 56.7018 25.7085 57.9654 28.1006 58.9793C32.3906 60.7919 36.9431 61.7115 41.6318 61.7115C46.3206 61.7115 50.8717 60.7919 55.1618 58.9793C57.5539 57.9654 59.8034 56.7018 61.8937 55.1988C63.6451 55.7286 65.3303 56.4139 66.9314 57.2393V58.1832C63.4082 59.3805 60.867 62.7204 60.867 66.6436Z" fill="#FC5D3D"/>
<path d="M41.6319 53.9135C56.5197 53.9135 68.5873 41.8445 68.5873 26.958C68.5873 12.0715 56.5184 0 41.6319 0C26.7453 0 14.6764 12.0702 14.6764 26.958C14.6764 41.8458 26.7453 53.9135 41.6319 53.9135Z" fill="#FC5D3D"/>
<path d="M89.2479 81.3008L89.5778 86.2251C89.6211 86.8799 89.1409 87.4365 88.532 87.4365H85.6304C85.0228 87.4365 84.5413 86.8799 84.5859 86.2251L84.9145 81.3008C83.7325 80.5722 82.9427 79.2653 82.9427 77.775C82.9427 75.4886 84.7961 73.6365 87.0812 73.6365C89.3664 73.6365 91.2197 75.4886 91.2197 77.775C91.2197 79.2653 90.4312 80.5722 89.2479 81.3008Z" fill="#FC5D3D"/>
<path d="M104.362 61.7867H103.156V55.912C103.156 51.6194 101.484 47.5829 98.447 44.5462C95.4116 41.5108 91.3751 39.8384 87.0812 39.8384C82.7873 39.8384 78.7508 41.5108 75.7154 44.5462C72.6787 47.5829 71.0075 51.6194 71.0075 55.912V61.7867H69.8C67.1174 61.7867 64.9431 63.961 64.9431 66.6435V94.4295C64.9431 97.1121 67.1174 99.2864 69.8 99.2864H104.362C107.045 99.2864 109.219 97.1121 109.219 94.4295V66.6435C109.219 63.961 107.045 61.7867 104.362 61.7867ZM89.2479 81.3008L89.5778 86.2252C89.6211 86.8799 89.1409 87.4365 88.532 87.4365H85.6304C85.0228 87.4365 84.5413 86.8799 84.5859 86.2252L84.9145 81.3008C83.7325 80.5722 82.9427 79.2653 82.9427 77.775C82.9427 75.4886 84.7961 73.6365 87.0812 73.6365C89.3663 73.6365 91.2197 75.4886 91.2197 77.775C91.2197 79.2653 90.4312 80.5722 89.2479 81.3008ZM97.2701 61.7867H76.8949V55.912C76.8949 50.2947 81.4639 45.7232 87.0825 45.7232C92.7011 45.7232 97.2701 50.2947 97.2701 55.912V61.7867Z" fill="#FC5D3D"/>
<path d="M89.2479 81.3008L89.5778 86.2251C89.6211 86.8799 89.1409 87.4365 88.532 87.4365H85.6304C85.0228 87.4365 84.5413 86.8799 84.5859 86.2251L84.9145 81.3008C83.7325 80.5722 82.9427 79.2653 82.9427 77.775C82.9427 75.4886 84.7961 73.6365 87.0812 73.6365C89.3664 73.6365 91.2197 75.4886 91.2197 77.775C91.2197 79.2653 90.4312 80.5722 89.2479 81.3008Z" fill="white"/>
</svg>
