<svg width="173" height="146" viewBox="0 0 173 146" fill="none" xmlns="http://www.w3.org/2000/svg">
<g clip-path="url(#clip0_1_201)">
<path d="M8.34766 49.7523L0.00602805 45.2218C-0.106491 40.3747 1.00974 35.5743 3.25781 31.2375C5.18101 39.6546 15.3022 43.6592 19.9719 51.0084C21.4102 53.3113 22.2926 55.8968 22.5537 58.5733C22.8148 61.2497 22.448 63.9485 21.4805 66.4697L22.0291 72.9958C17.7178 71.7506 13.7378 69.619 10.3631 66.7477C6.9885 63.8765 4.29948 60.334 2.48138 56.3641C1.48431 54.1273 0.783329 51.7784 0.394973 49.3727C4.2842 49.7717 8.34766 49.7523 8.34766 49.7523Z" fill="#F2F2F2"/>
<path d="M158.302 132.174L158.558 126.628C161.224 125.254 164.198 124.528 167.222 124.513C163.061 127.794 163.581 134.118 160.76 138.529C159.869 139.899 158.67 141.057 157.251 141.919C155.833 142.781 154.232 143.324 152.566 143.508L149.084 145.564C148.606 142.995 148.712 140.357 149.393 137.832C150.074 135.306 151.315 132.953 153.03 130.934C154.004 129.811 155.121 128.811 156.354 127.957C157.188 130.077 158.302 132.174 158.302 132.174Z" fill="#E6E6E6"/>
<path d="M149.33 142.71L146.177 142.71L144.677 130.982L149.331 130.982L149.33 142.71Z" fill="#FFB6B6"/>
<path d="M150.134 145.657L139.967 145.657V145.533C139.967 144.521 140.384 143.55 141.126 142.834C141.868 142.119 142.875 141.717 143.924 141.717H143.925L145.782 140.358L149.247 141.717L150.134 141.717L150.134 145.657Z" fill="#2F2E41"/>
<path d="M134.681 142.71L131.528 142.71L130.028 130.982L134.682 130.982L134.681 142.71Z" fill="#FFB6B6"/>
<path d="M135.485 145.657L125.318 145.657V145.533C125.318 144.521 125.735 143.55 126.477 142.834C127.22 142.119 128.226 141.717 129.276 141.717H129.276L131.133 140.358L134.598 141.717L135.485 141.717L135.485 145.657Z" fill="#2F2E41"/>
<path d="M133.316 78.5945L153.825 79.0889C157.721 81.129 157.78 85.5444 156.503 90.7868C156.503 90.7868 156.934 93.9027 156.073 94.7336C155.211 95.5645 154.78 95.5645 155.211 97.0186C155.642 98.4727 153.365 100.848 153.642 101.114C153.918 101.381 154.565 102.835 154.565 102.835L152.41 114.675C152.41 114.675 150.902 135.24 150.472 135.656C150.041 136.071 149.61 135.656 150.041 136.695C150.472 137.733 150.902 137.318 150.472 137.733C150.09 138.13 149.73 138.546 149.394 138.98H144.186C144.186 138.98 143.793 136.902 143.793 136.695C143.793 136.487 143.363 135.24 143.363 135.033C143.363 134.825 143.743 134.458 143.743 134.458C143.875 134.036 143.964 133.602 144.009 133.163C144.009 132.748 145.301 116.753 145.301 116.753L142.716 95.98L136.469 116.337C136.469 116.337 136.469 134.202 136.038 134.617C135.607 135.033 135.607 134.825 135.823 135.656C136.038 136.487 136.9 136.279 136.254 136.902C135.607 137.525 135.392 136.487 135.607 137.525L135.823 138.564L129.36 138.653C129.36 138.653 128.498 136.902 128.929 136.279C129.36 135.656 129.334 135.826 128.809 134.806C128.283 133.786 128.068 133.579 128.283 133.371C128.498 133.163 128.498 132.058 128.498 132.058L129.576 112.183C129.576 112.183 129.791 91.2023 129.791 90.5791C129.807 90.2584 129.746 89.9385 129.612 89.6446V88.7987L130.437 85.8013L133.316 78.5945Z" fill="#69687F"/>
<path d="M145.636 37.4723C149.156 37.4723 152.009 34.7212 152.009 31.3276C152.009 27.934 149.156 25.1829 145.636 25.1829C142.117 25.1829 139.264 27.934 139.264 31.3276C139.264 34.7212 142.117 37.4723 145.636 37.4723Z" fill="#FFB6B6"/>
<path d="M142.45 41.5335C141.077 42.3205 140.256 43.7665 139.785 45.2379C138.912 47.9621 138.387 50.7787 138.22 53.6254L137.722 62.148L131.556 80.2948C136.9 84.6556 156.99 81.2859 156.99 81.2859C156.99 81.2859 157.606 81.0877 156.99 80.493C156.373 79.8984 155.772 80.4252 156.389 79.8306C157.006 79.2359 156.581 79.8984 156.375 79.3037C156.17 78.7091 156.375 79.1055 156.581 78.9073C156.786 78.7091 154.989 76.9251 154.989 76.9251L156.634 66.5087L158.689 45.4978C156.223 42.5246 151.262 40.7719 151.262 40.7719L149.98 38.547L143.571 39.0414L142.45 41.5335Z" fill="#130160"/>
<path d="M141.576 27.7214C141.823 27.7233 142.068 27.7543 142.307 27.8139C142.778 27.923 143.256 28.0003 143.737 28.0452C145.212 28.179 146.599 28.7857 147.674 29.7682C148.75 30.7508 149.453 32.0527 149.672 33.4658C150.042 33.1545 150.884 32.5819 151.575 33.1141C151.586 33.1226 151.592 33.1269 151.616 33.1158C152.075 32.906 152.889 30.3236 152.914 28.0499C152.927 26.8431 152.729 25.302 151.717 24.814L151.664 24.7883L151.65 24.7324C151.582 24.4609 150.827 23.9975 149.514 23.6369C147.127 22.9814 143.57 21.7046 141.567 23.5837C141.415 24.2171 140.922 25.5727 140.424 25.7264C139.872 25.8965 139.396 26.0433 139.321 26.6958C139.258 27.6244 139.263 28.5561 139.334 29.4841C139.521 28.9163 139.888 28.4192 140.383 28.063C140.736 27.8344 141.152 27.7152 141.576 27.7214Z" fill="#2F2E41"/>
<path d="M129.716 61.6735L140.125 55.2453L134.882 48.5249L129.705 54.6655L113.575 55.6195C113.151 55.2151 112.613 54.9385 112.029 54.8233C111.444 54.7082 110.838 54.7595 110.283 54.9711C109.728 55.1826 109.249 55.5453 108.905 56.0147C108.56 56.4842 108.364 57.0403 108.342 57.6151C108.319 58.1899 108.47 58.7587 108.777 59.2521C109.084 59.7454 109.533 60.142 110.07 60.3935C110.606 60.6451 111.207 60.7406 111.799 60.6686C112.391 60.5965 112.948 60.36 113.403 59.9878L129.716 61.6735Z" fill="#FFB6B6"/>
<path d="M149.786 46.2728C150.39 49.7984 138.981 56.5307 138.981 56.5307C138.981 55.7032 132.172 61.9504 131.864 61.2641C130.991 59.3135 130.377 54.6936 129.156 53.9541C128.458 53.5313 133.36 49.5586 133.36 49.5586C133.36 49.5586 135.926 47.0658 139.294 43.9215C140.229 43.0156 141.386 42.3524 142.658 41.9938C143.931 41.6353 145.276 41.5929 146.57 41.8707C146.57 41.8707 149.182 42.7472 149.786 46.2728Z" fill="#130160"/>
<path d="M171.241 63.3608L164.356 53.4618L157.499 58.6585L163.975 63.5193L165.306 79.0495C164.896 79.4671 164.62 79.9908 164.513 80.5567C164.406 81.1226 164.472 81.7063 164.703 82.2366C164.934 82.767 165.321 83.221 165.815 83.5434C166.309 83.8658 166.889 84.0425 167.486 84.0522C168.082 84.0619 168.669 83.904 169.174 83.5978C169.679 83.2916 170.081 82.8503 170.33 82.3277C170.579 81.8052 170.666 81.224 170.579 80.6549C170.491 80.0858 170.234 79.5536 169.839 79.1229L171.241 63.3608Z" fill="#FFB6B6"/>
<path d="M154.848 44.3379C158.491 43.6808 165.713 54.537 165.713 54.537C164.855 54.5547 171.476 60.987 170.771 61.2979C168.767 62.1813 163.99 62.8713 163.249 64.0637C162.826 64.7456 158.603 60.1037 158.603 60.1037C158.603 60.1037 155.964 57.6826 152.633 54.5027C151.674 53.6206 150.962 52.5188 150.563 51.2999C150.164 50.081 150.092 48.7846 150.352 47.5315C150.352 47.5315 151.206 44.9949 154.848 44.3379Z" fill="#130160"/>
<path d="M173 145.706C173 145.744 172.992 145.783 172.977 145.819C172.962 145.854 172.939 145.887 172.911 145.914C172.883 145.941 172.849 145.963 172.812 145.978C172.775 145.993 172.735 146 172.695 146H100.838C100.757 146 100.68 145.969 100.623 145.914C100.565 145.859 100.533 145.784 100.533 145.706C100.533 145.628 100.565 145.553 100.623 145.498C100.68 145.443 100.757 145.412 100.838 145.412H172.695C172.735 145.412 172.775 145.419 172.812 145.434C172.849 145.449 172.883 145.47 172.911 145.498C172.939 145.525 172.962 145.557 172.977 145.593C172.992 145.629 173 145.667 173 145.706Z" fill="#130160"/>
<path d="M106.433 56.559H19.2252C17.8627 56.5604 16.5565 57.083 15.5931 58.012C14.6296 58.941 14.0877 60.2006 14.0862 61.5144V113.87C14.0877 115.184 14.6297 116.443 15.5931 117.372C16.5565 118.301 17.8627 118.824 19.2252 118.825H106.433C107.795 118.824 109.102 118.301 110.065 117.372C111.029 116.443 111.571 115.184 111.572 113.87V61.5144C111.571 60.2006 111.029 58.941 110.065 58.012C109.102 57.083 107.796 56.5604 106.433 56.559Z" fill="#FC5D3D"/>
<path d="M106.433 56.559H19.2252C17.8627 56.5604 16.5565 57.083 15.5931 58.012C14.6296 58.941 14.0877 60.2006 14.0862 61.5144V113.87C14.0877 115.184 14.6297 116.443 15.5931 117.372C16.5565 118.301 17.8627 118.824 19.2252 118.825H106.433C107.796 118.824 109.102 118.301 110.065 117.372C111.029 116.443 111.571 115.184 111.572 113.87V61.5144C111.571 60.2006 111.029 58.941 110.065 58.012C109.102 57.083 107.796 56.5604 106.433 56.559ZM108.12 94.1665C108.099 99.4966 105.912 104.607 102.029 108.4C98.1463 112.194 92.876 114.368 87.3492 114.458C78.5004 114.569 92.2452 114.613 81.5729 114.613C57.1688 114.613 31.722 114.388 22.2276 114.242C20.9784 114.217 19.7888 113.722 18.9127 112.863C18.0367 112.004 17.5436 110.849 17.5387 109.644V61.5183C17.5392 61.0869 17.7169 60.6732 18.0329 60.3677C18.3489 60.0623 18.7775 59.8899 19.2249 59.8884H106.43C106.877 59.8889 107.306 60.0602 107.622 60.3648C107.939 60.6694 108.118 61.0826 108.12 61.5139V94.1665Z" fill="#130160"/>
<path d="M95.698 26.411H29.2548C28.6669 26.4118 28.0936 26.5876 27.6132 26.9143C27.1328 27.241 26.7686 27.7027 26.5704 28.2364L16.3087 55.9976C16.1556 56.412 16.1078 56.8558 16.1695 57.2916C16.2311 57.7275 16.4004 58.1427 16.663 58.5024C16.9257 58.8621 17.274 59.1557 17.6788 59.3586C18.0835 59.5615 18.5329 59.6677 18.9891 59.6683L108.1 59.8208H108.104C108.576 59.8208 109.04 59.7079 109.455 59.4924C109.87 59.2768 110.224 58.9652 110.483 58.5855C110.743 58.2059 110.901 57.7701 110.943 57.3171C110.985 56.8642 110.909 56.4083 110.724 55.9903L110.568 56.0545L110.724 55.9903L98.3173 28.0765C98.098 27.582 97.7328 27.1605 97.2671 26.8643C96.8014 26.5682 96.2558 26.4106 95.698 26.411Z" fill="#130160"/>
<path d="M110.954 56.5932C110.954 56.9654 110.876 57.3337 110.724 57.6759L98.3181 79.1631C98.0973 79.6566 97.7316 80.0771 97.266 80.3727C96.8005 80.6683 96.2555 80.8261 95.6981 80.8269H29.2559C28.6678 80.8263 28.0942 80.6508 27.6134 80.3243C27.1325 79.9978 26.7679 79.5362 26.5692 79.0025L16.3094 57.6685C16.1837 57.3286 16.1286 56.9682 16.1474 56.6078C16.1662 56.2474 16.2584 55.894 16.4189 55.568C16.5794 55.242 16.8049 54.9497 17.0826 54.7078C17.3603 54.4659 17.6847 54.2791 18.0373 54.1582C18.3423 54.052 18.6642 53.9976 18.9884 53.9975L29.8737 53.9777L34.3165 53.9703L92.7781 53.8714L97.2235 53.864L108.101 53.8442H108.104C108.86 53.8444 109.585 54.134 110.119 54.6495C110.654 55.165 110.954 55.8641 110.954 56.5932Z" fill="#130160"/>
<path d="M25.7631 95.8316C27.0806 95.8316 45.1735 96.8979 45.1735 98.1683C45.1735 99.4388 27.0806 100.432 25.7631 100.432C25.1304 100.432 24.5236 100.19 24.0762 99.7587C23.6288 99.3273 23.3774 98.7421 23.3774 98.132C23.3774 97.5219 23.6288 96.9368 24.0762 96.5054C24.5236 96.074 25.1304 95.8316 25.7631 95.8316Z" fill="#130160"/>
<path d="M82.8182 75.329H44.2762C43.943 75.329 43.6235 75.4566 43.388 75.6838C43.1524 75.9109 43.02 76.219 43.02 76.5403C43.02 76.8616 43.1524 77.1697 43.388 77.3968C43.6235 77.624 43.943 77.7516 44.2762 77.7516H82.8182C83.1513 77.7516 83.4709 77.624 83.7064 77.3968C83.942 77.1697 84.0744 76.8616 84.0744 76.5403C84.0744 76.219 83.942 75.9109 83.7064 75.6838C83.4709 75.4566 83.1513 75.329 82.8182 75.329Z" fill="#E4E4E4"/>
<path d="M63.1563 94.7027C62.9412 94.7029 62.7281 94.6623 62.529 94.5832L27.2012 80.3232V35.687C27.2016 35.2923 27.363 34.9139 27.6499 34.6348C27.9368 34.3557 28.3258 34.1987 28.7316 34.1982H96.5054C96.9112 34.1987 97.3002 34.3557 97.5871 34.6348C97.874 34.9139 98.0354 35.2923 98.0358 35.687V80.3543L97.9694 80.3819L63.8026 94.5762C63.598 94.6598 63.3782 94.7029 63.1563 94.7027Z" fill="white"/>
<path d="M63.1068 80.1353C72.7214 80.1353 80.5156 72.5174 80.5156 63.1203C80.5156 53.7231 72.7214 46.1053 63.1068 46.1053C53.4922 46.1053 45.698 53.7231 45.698 63.1203C45.698 72.5174 53.4922 80.1353 63.1068 80.1353Z" fill="#FC5D3D"/>
<path d="M60.8274 72.4511C60.5386 72.4511 60.2538 72.3833 59.9956 72.2529C59.7373 72.1226 59.5127 71.9333 59.3395 71.7002L54.7776 65.5623C54.6303 65.3652 54.5229 65.1407 54.4617 64.9016C54.4005 64.6626 54.3867 64.4137 54.4209 64.1692C54.4552 63.9247 54.537 63.6895 54.6615 63.4769C54.786 63.2644 54.9509 63.0787 55.1466 62.9306C55.3424 62.7824 55.5652 62.6747 55.8023 62.6136C56.0394 62.5525 56.286 62.5392 56.5282 62.5745C56.7704 62.6097 57.0033 62.6929 57.2136 62.8191C57.4239 62.9454 57.6074 63.1122 57.7537 63.3102L60.7382 67.3254L68.4037 55.723C68.6773 55.3088 69.1028 55.0213 69.5865 54.9237C70.0703 54.826 70.5726 54.9263 70.9831 55.2025C71.3936 55.4786 71.6785 55.9079 71.7753 56.3961C71.872 56.8842 71.7726 57.3911 71.499 57.8053L62.3752 71.6153C62.2102 71.865 61.9882 72.0712 61.7279 72.2166C61.4676 72.3619 61.1765 72.4421 60.8792 72.4505C60.8619 72.4508 60.8447 72.4511 60.8274 72.4511Z" fill="white"/>
</g>
<defs>
<clipPath id="clip0_1_201">
<rect width="173" height="146" fill="white"/>
</clipPath>
</defs>
</svg>
